<svg width="24" height="24" viewBox="0 0 24 24" fill="none" xmlns="http://www.w3.org/2000/svg">
<g clip-path="url(#clip0)">
<path d="M12.0051 14.3118L3.02634 5.33351C2.77971 5.08629 2.44995 4.95029 2.09834 4.95029C1.74654 4.95029 1.41698 5.08629 1.16995 5.33351L0.383609 6.12024C0.136195 6.36707 -5.39957e-07 6.69702 -5.24588e-07 7.04863C-5.09219e-07 7.40024 0.136195 7.7298 0.383609 7.97682L11.0736 18.667C11.3214 18.915 11.6525 19.0508 12.0045 19.0498C12.358 19.0508 12.6888 18.9152 12.9368 18.667L23.6164 7.98677C23.8638 7.73975 24 7.41019 24 7.05839C24 6.70678 23.8638 6.37721 23.6164 6.12999L22.8301 5.34346C22.3182 4.83165 21.4851 4.83165 20.9735 5.34346L12.0051 14.3118Z" fill="black"/>
</g>
<defs>
<clipPath id="clip0">
<rect y="24" width="24" height="24" transform="rotate(-90 0 24)" fill="white"/>
</clipPath>
</defs>
</svg>
