<svg width="26" height="26" viewBox="0 0 26 26" fill="none" xmlns="http://www.w3.org/2000/svg">
<path d="M21.7141 25.1944H3.9932C3.95763 25.1944 3.92193 25.1928 3.88671 25.1902C3.21338 25.1281 2.71828 24.5343 2.77927 23.8654L4.25688 7.61535C4.31421 6.9835 4.83566 6.50696 5.47023 6.50696H20.2371C20.8706 6.50767 21.3919 6.98421 21.4495 7.61535L22.9269 23.8654C22.93 23.9 22.9316 23.9376 22.9316 23.9749C22.9319 24.6466 22.3861 25.1939 21.7141 25.1944ZM5.47023 7.3194C5.2589 7.3194 5.08516 7.47813 5.06613 7.68875L3.58863 23.9392C3.56807 24.1621 3.73342 24.3601 3.95644 24.3803L3.9932 24.382H21.7136C21.9375 24.3815 22.1191 24.1995 22.1191 23.9753L20.6402 7.68922C20.6212 7.4786 20.4475 7.31987 20.2362 7.3194H5.47023ZM9.60359 9.3518C9.603 9.12772 9.42004 8.94487 9.19642 8.9444L9.19831 8.13196C9.86774 8.1335 10.4141 8.67989 10.416 9.34944L9.60359 9.3518Z" fill="white"/>
<path d="M16.5098 10.5694C15.8378 10.5694 15.291 10.0228 15.291 9.35065C15.291 8.67862 15.8376 8.13199 16.5098 8.13199C17.1818 8.13199 17.7284 8.67862 17.7284 9.35065C17.7284 10.0228 17.1818 10.5694 16.5098 10.5694ZM16.5098 8.94443C16.2857 8.94443 16.1034 9.12656 16.1034 9.35065C16.1034 9.57498 16.2857 9.75699 16.5098 9.75699C16.734 9.75699 16.916 9.57498 16.916 9.35065C16.916 9.12656 16.734 8.94443 16.5098 8.94443Z" fill="white"/>
<path d="M9.19722 10.5694C8.52531 10.5694 7.97856 10.0228 7.97856 9.35065C7.97856 8.67862 8.52519 8.13199 9.19722 8.13199V8.94443C8.97337 8.94443 8.791 9.12644 8.791 9.35065C8.791 9.57474 8.97337 9.75699 9.19722 9.75699C9.42119 9.75699 9.60356 9.57474 9.60356 9.35065H10.416C10.416 10.0228 9.86937 10.5694 9.19722 10.5694Z" fill="white"/>
<path d="M9.60356 9.35183C9.60297 9.12774 9.42001 8.9449 9.1964 8.94443L9.19829 8.13199C9.86772 8.13352 10.4141 8.67992 10.416 9.34947L9.60356 9.35183Z" fill="white"/>
<path d="M16.916 8.53823H16.1034V4.882C16.1034 3.08999 14.6456 1.63199 12.8536 1.63199C11.0616 1.63199 9.60356 3.08999 9.60356 4.882V8.53823H8.791V4.882C8.791 2.64181 10.6134 0.819427 12.8536 0.819427C15.0935 0.819427 16.916 2.64181 16.916 4.882V8.53823Z" fill="white"/>
</svg>
